HIERARCHY
ROOT Hips
{
	OFFSET 0.00000 0.00000 0.00000
	CHANNELS 6 Xposition Yposition Zposition Zrotation Yrotation Xrotation 
	JOINT LHipJoint
	{
		OFFSET 0 0 0
		CHANNELS 3 Zrotation Yrotation Xrotation
		JOINT LeftUpLeg
		{
			OFFSET 1.41261 -1.82971 0.84908
			CHANNELS 3 Zrotation Yrotation Xrotation
			JOINT LeftLeg
			{
				OFFSET 2.52554 -6.93888 0.00000
				CHANNELS 3 Zrotation Yrotation Xrotation
				JOINT LeftFoot
				{
					OFFSET 2.56654 -7.05152 0.00000
					CHANNELS 3 Zrotation Yrotation Xrotation
					JOINT LeftToeBase
					{
						OFFSET 0.21698 -0.59616 1.85369
						CHANNELS 3 Zrotation Yrotation Xrotation
						End Site
						{
							OFFSET 0.00000 -0.00000 0.97832
						}
					}
				}
			}
		}
	}
	JOINT RHipJoint
	{
		OFFSET 0 0 0
		CHANNELS 3 Zrotation Yrotation Xrotation
		JOINT RightUpLeg
		{
			OFFSET -1.12808 -1.82971 0.84907
			CHANNELS 3 Zrotation Yrotation Xrotation
			JOINT RightLeg
			{
				OFFSET -2.53425 -6.96280 0.00000
				CHANNELS 3 Zrotation Yrotation Xrotation
				JOINT RightFoot
				{
					OFFSET -2.58413 -7.09983 0.00000
					CHANNELS 3 Zrotation Yrotation Xrotation
					JOINT RightToeBase
					{
						OFFSET -0.26437 -0.72636 1.92241
						CHANNELS 3 Zrotation Yrotation Xrotation
						End Site
						{
							OFFSET -0.00000 -0.00000 1.02667
						}
					}
				}
			}
		}
	}
	JOINT LowerBack
	{
		OFFSET 0 0 0
		CHANNELS 3 Zrotation Yrotation Xrotation
		JOINT Spine
		{
			OFFSET -0.02096 2.02288 -0.14752
			CHANNELS 3 Zrotation Yrotation Xrotation
			JOINT Spine1
			{
				OFFSET 0.03477 2.03136 -0.02358
				CHANNELS 3 Zrotation Yrotation Xrotation
				JOINT Neck
				{
					OFFSET 0 0 0
					CHANNELS 3 Zrotation Yrotation Xrotation
					JOINT Neck1
					{
						OFFSET 0.00174 1.74359 0.19336
						CHANNELS 3 Zrotation Yrotation Xrotation
						JOINT Head
						{
							OFFSET -0.03054 1.76140 -0.17751
							CHANNELS 3 Zrotation Yrotation Xrotation
							End Site
							{
								OFFSET -0.00863 1.77239 -0.08120
							}
						}
					}
				}
				JOINT LeftShoulder
				{
					OFFSET 0 0 0
					CHANNELS 3 Zrotation Yrotation Xrotation
					JOINT LeftArm
					{
						OFFSET 3.68685 1.32687 -0.67367
						CHANNELS 3 Zrotation Yrotation Xrotation
						JOINT LeftForeArm
						{
							OFFSET 4.76468 -0.00000 -0.00000
							CHANNELS 3 Zrotation Yrotation Xrotation
							JOINT LeftHand
							{
								OFFSET 3.52712 -0.00000 -0.00000
								CHANNELS 3 Zrotation Yrotation Xrotation
								JOINT LeftFingerBase
								{
									OFFSET 0 0 0
									CHANNELS 3 Zrotation Yrotation Xrotation
									JOINT LeftHandIndex1
									{
										OFFSET 0.85956 -0.00000 -0.00000
										CHANNELS 3 Zrotation Yrotation Xrotation
										End Site
										{
											OFFSET 0.69300 -0.00000 -0.00000
										}
									}
								}
								JOINT LThumb
								{
									OFFSET 0 0 0
									CHANNELS 3 Zrotation Yrotation Xrotation
									End Site
									{
										OFFSET 0.70358 -0.00000 0.70358
									}
								}
							}
						}
					}
				}
				JOINT RightShoulder
				{
					OFFSET 0 0 0
					CHANNELS 3 Zrotation Yrotation Xrotation
					JOINT RightArm
					{
						OFFSET -3.31304 1.28268 -0.97357
						CHANNELS 3 Zrotation Yrotation Xrotation
						JOINT RightForeArm
						{
							OFFSET -4.90577 -0.00000 -0.00000
							CHANNELS 3 Zrotation Yrotation Xrotation
							JOINT RightHand
							{
								OFFSET -3.42692 -0.00000 0.00000
								CHANNELS 3 Zrotation Yrotation Xrotation
								JOINT RightFingerBase
								{
									OFFSET 0 0 0
									CHANNELS 3 Zrotation Yrotation Xrotation
									JOINT RightHandIndex1
									{
										OFFSET -0.74096 -0.00000 -0.00000
										CHANNELS 3 Zrotation Yrotation Xrotation
										End Site
										{
											OFFSET -0.59738 -0.00000 -0.00000
										}
									}
								}
								JOINT RThumb
								{
									OFFSET 0 0 0
									CHANNELS 3 Zrotation Yrotation Xrotation
									End Site
									{
										OFFSET -0.60650 -0.00000 0.60650
									}
								}
							}
						}
					}
				}
			}
		}
	}
}
MOTION
Frames: 6
Frame Time: .0083333
1.5835 17.8510 5.3457 -1.6424 -0.0775 1.1000 0.0000 0.0000 0.0000 -18.0001 0.0305 2.2858 0.3529 3.8166 10.5613 0.7002 -2.4365 -15.1673 2.2828 -9.4318 -27.1557 0.0000 0.0000 0.0000 21.6428 1.1961 -0.4884 -0.8096 -5.7423 16.0384 -0.6521 -5.7181 -18.3977 -1.2040 -6.9615 19.6014 -0.6373 0.7379 4.8465 1.7857 1.0157 -1.3684 2.1181 0.5450 -4.1765 0.8683 2.1662 -14.7745 -2.2657 3.2032 16.2999 -0.5414 1.3704 7.5012 0.0000 0.0000 0.0000 -95.0084 7.1104 8.3421 20.1186 -30.7850 -5.5919 -0.0000 -0.0000 4.3912 5.6801 -12.9830 -1.2801 -7.1250 0.0000 -0.0000 -14.8652 17.1899 10.1577 0.0000 0.0000 0.0000 91.2378 -1.0225 3.6918 -13.6186 22.1868 -2.6824 0.0000 0.0000 5.0438 -7.9788 -36.4357 4.7587 7.1250 -0.0000 -0.0000 32.2434 -63.8303 -15.5053
1.5861 17.8512 5.3448 -1.6487 -0.0975 1.1451 0.0000 0.0000 0.0000 -18.0005 0.0447 2.2705 0.3474 3.7870 10.4782 0.6952 -2.4339 -15.1111 2.2860 -9.4381 -27.1755 0.0000 0.0000 0.0000 21.6514 1.3015 -0.5371 -0.8157 -5.7632 16.0988 -0.6526 -5.7738 -18.4430 -1.1798 -6.8936 19.4006 -0.5909 0.7329 4.8566 1.8118 1.0130 -1.3614 2.1193 0.5428 -4.1745 0.9410 2.1987 -14.7987 -2.3265 3.2435 16.3294 -0.5685 1.3878 7.5181 -0.0000 -0.0000 0.0000 -95.0481 7.1054 8.3914 20.1783 -30.8565 -5.6225 -0.0000 -0.0000 4.3407 5.7851 -12.8953 -1.2952 -7.1250 0.0000 -0.0000 -14.7999 17.2706 10.0826 -0.0000 -0.0000 0.0000 91.2668 -0.8764 3.5259 -13.6153 22.1821 -2.6811 0.0000 0.0000 4.7508 -8.0243 -36.2019 4.7597 7.1250 -0.0000 -0.0000 31.9172 -63.6489 -15.1977
1.5880 17.8519 5.3449 -1.5869 -0.1044 1.1803 0.0000 0.0000 0.0000 -18.0723 0.0798 2.2547 0.3431 3.7638 10.4132 0.6916 -2.4709 -15.0641 2.2792 -9.4250 -27.1339 0.0000 0.0000 0.0000 21.5700 1.3090 -0.6060 -0.8209 -5.7811 16.1505 -0.6560 -5.7538 -18.4657 -1.1560 -6.8264 19.2020 -0.6321 0.7274 4.8611 1.8271 1.0037 -1.3698 2.1590 0.5395 -4.1864 1.0243 2.2178 -14.7117 -2.4475 3.2734 16.3025 -0.6195 1.3968 7.4981 0.0000 -0.0000 0.0000 -95.1344 7.1003 8.2708 20.2158 -30.9014 -5.6418 -0.0000 -0.0000 4.4606 5.8536 -12.8511 -1.3063 -7.1250 0.0000 -0.0000 -14.7564 17.3107 10.0374 0.0000 -0.0000 0.0000 91.2752 -0.7974 3.3850 -13.6051 22.1673 -2.6773 0.0000 0.0000 4.6992 -7.8912 -36.0460 4.6627 7.1250 -0.0000 -0.0000 31.8710 -63.4841 -15.0511
1.5901 17.8524 5.3451 -1.5075 -0.1027 1.2241 0.0000 0.0000 0.0000 -18.1640 0.1238 2.2064 0.3408 3.7513 10.3781 0.6897 -2.5198 -15.0341 2.2548 -9.3778 -26.9844 0.0000 0.0000 0.0000 21.4678 1.3309 -0.6675 -0.8238 -5.7909 16.1789 -0.6581 -5.7635 -18.4950 -1.1437 -6.7912 19.0982 -0.6728 0.7407 4.8543 1.8283 1.0190 -1.3787 2.1819 0.5483 -4.1933 0.9715 2.2193 -14.6676 -2.4111 3.2818 16.3408 -0.5983 1.4011 7.5016 -0.0000 -0.0000 0.0000 -95.1875 7.0692 8.2103 20.2262 -30.9139 -5.6471 -0.0000 -0.0000 4.5600 5.9349 -12.9148 -1.3310 -7.1250 0.0000 -0.0000 -14.6972 17.2455 10.0161 -0.0000 -0.0000 0.0000 91.3019 -0.7438 3.2328 -13.6280 22.2004 -2.6859 0.0000 0.0000 4.6610 -8.0032 -36.0974 4.7353 7.1250 -0.0000 -0.0000 31.8157 -63.5565 -15.0760
1.5921 17.8526 5.3447 -1.5135 -0.0864 1.2712 0.0000 0.0000 0.0000 -18.1557 0.1678 2.1417 0.3383 3.7377 10.3400 0.6869 -2.5858 -14.9902 2.2727 -9.4124 -27.0940 0.0000 0.0000 0.0000 21.4773 1.4289 -0.6999 -0.8262 -5.7991 16.2026 -0.6569 -5.8527 -18.5478 -1.1504 -6.8102 19.1543 -0.6215 0.7530 4.8602 1.8572 1.0398 -1.3761 2.1811 0.5577 -4.1944 0.7838 2.1990 -14.7503 -2.2413 3.2672 16.4533 -0.5124 1.3967 7.5466 -0.0000 -0.0000 0.0000 -95.2566 7.0401 8.2626 20.2549 -30.9483 -5.6619 -0.0000 -0.0000 4.5150 6.0784 -12.9846 -1.3706 -7.1250 0.0000 -0.0000 -14.5957 17.1715 9.9667 -0.0000 -0.0000 0.0000 91.3127 -0.6969 3.1507 -13.6650 22.2538 -2.6999 0.0000 0.0000 4.5223 -8.2651 -36.1945 4.9029 7.1250 -0.0000 -0.0000 31.6592 -63.7069 -15.1050
1.5940 17.8528 5.3452 -1.5753 -0.0756 1.2920 0.0000 0.0000 0.0000 -18.0873 0.2004 2.1090 0.3372 3.7319 10.3236 0.6874 -2.6399 -14.9870 2.2946 -9.4545 -27.2277 0.0000 0.0000 0.0000 21.5419 1.4371 -0.7185 -0.8267 -5.8010 16.2082 -0.6539 -5.8773 -18.5340 -1.1521 -6.8152 19.1691 -0.5064 0.7590 4.8763 1.8855 1.0563 -1.3607 2.1442 0.5632 -4.1867 0.6882 2.1730 -14.8148 -2.1630 3.2396 16.5047 -0.4732 1.3840 7.5714 0.0000 0.0000 0.0000 -95.3386 7.0010 8.1926 20.2762 -30.9737 -5.6728 -0.0000 -0.0000 4.6066 6.1347 -13.0197 -1.3871 -7.1250 0.0000 -0.0000 -14.5555 17.1349 9.9493 0.0000 0.0000 0.0000 91.3229 -0.6486 3.0801 -13.6666 22.2561 -2.7006 0.0000 0.0000 4.4088 -8.3555 -36.2075 4.9586 7.1250 -0.0000 -0.0000 31.5808 -63.7418 -15.0894
